<svg id="Capa_1" enable-background="new 0 0 512 512" height="512" viewBox="0 0 512 512" width="512" xmlns="http://www.w3.org/2000/svg"><g><path d="m464.13 512-33.294-43.948c-11.804-15.581-30.223-24.735-49.77-24.735h-73.034v-77.008h-104.065v77.008h-73.034c-19.547 0-37.966 9.154-49.77 24.735l-33.293 43.948z" fill="#f1d0a5"/><path d="m203.967 392.613c15.887 7.167 33.502 11.159 52.033 11.159s36.145-3.992 52.033-11.159v-26.304h-104.066z" fill="#f1b986"/><path d="m256 380.878c-57.473 0-104.065-46.591-104.065-104.065v-124.878h104.065 104.065v124.878c0 57.474-46.591 104.065-104.065 104.065z" fill="#f1d0a5"/><path d="m334.049 151.935v193.702c16.189-18.344 26.016-42.435 26.016-68.824v-124.878z" fill="#f1b986"/><path d="m114.472 231.024v-58.277c0-44.829 36.341-81.171 81.171-81.171h2.081v118.634l-45.789 66.602v-45.789h-37.463z" fill="#f1d333"/><path d="m397.528 231.024v-58.277c0-44.829-36.341-81.171-81.171-81.171h-2.081v105.706c0 8.421 2.554 16.643 7.324 23.582l38.464 55.948v-45.789h37.464z" fill="#f1d333"/><path d="m376.715 276.813h-16.65v-58.36c0-4.552 3.69-8.241 8.241-8.241h8.409c11.495 0 20.813 9.318 20.813 20.813v24.975c0 11.495-9.318 20.813-20.813 20.813z" fill="#f1b986"/><path d="m135.285 276.813h16.65v-58.36c0-4.552-3.69-8.241-8.241-8.241h-8.409c-11.495 0-20.813 9.318-20.813 20.813v24.975c0 11.495 9.318 20.813 20.813 20.813z" fill="#f1b986"/><path d="m272.65 210.211h-74.927c-45.979 0-83.252-37.273-83.252-83.252v-14.569c0-34.484 27.955-62.439 62.439-62.439h95.74c22.989 0 41.626 18.637 41.626 41.626v77.008c0 22.99-18.636 41.626-41.626 41.626z" fill="#f6e266"/><path d="m387.122 8.325v18.732c0 4.598 3.727 8.325 8.325 8.325h81.171v81.171c0 4.598 3.727 8.325 8.325 8.325h18.732c4.598 0 8.325-3.727 8.325-8.325v-108.228c0-4.598-3.727-8.325-8.325-8.325h-108.228c-4.598 0-8.325 3.727-8.325 8.325z" fill="#dd5790"/><path d="m124.878 8.325v18.732c0 4.598-3.727 8.325-8.325 8.325h-81.171v81.171c0 4.598-3.727 8.325-8.325 8.325h-18.732c-4.598 0-8.325-3.727-8.325-8.325v-108.228c0-4.598 3.727-8.325 8.325-8.325h108.228c4.598 0 8.325 3.727 8.325 8.325z" fill="#df75a5"/><path d="m124.878 503.675v-18.732c0-4.598-3.727-8.325-8.325-8.325h-81.171v-81.171c0-4.598-3.727-8.325-8.325-8.325h-18.732c-4.598 0-8.325 3.727-8.325 8.325v108.228c0 4.598 3.727 8.325 8.325 8.325h108.228c4.598 0 8.325-3.727 8.325-8.325z" fill="#df75a5"/><path d="m387.122 503.675v-18.732c0-4.598 3.727-8.325 8.325-8.325h81.171v-81.171c0-4.598 3.727-8.325 8.325-8.325h18.732c4.598 0 8.325 3.727 8.325 8.325v108.228c0 4.598-3.727 8.325-8.325 8.325h-108.228c-4.598 0-8.325-3.727-8.325-8.325z" fill="#dd5790"/><g><path d="m504.274 328.246h-35.981c-4.268 0-7.726-3.459-7.726-7.726s3.459-7.726 7.726-7.726h35.981c4.268 0 7.726 3.459 7.726 7.726s-3.459 7.726-7.726 7.726z" fill="#6b61b1"/></g><g><path d="m434.992 328.246h-35.382c-2.049 0-4.014-.814-5.463-2.263l-12.488-12.487c-3.018-3.017-3.018-7.909-.001-10.927 3.018-3.017 7.91-3.018 10.927 0l10.225 10.224h32.182c4.268 0 7.726 3.459 7.726 7.726 0 4.268-3.458 7.727-7.726 7.727z" fill="#407093"/></g><g><path d="m504.274 361.547h-56.794c-4.268 0-7.726-3.459-7.726-7.726s3.459-7.726 7.726-7.726h56.794c4.268 0 7.726 3.459 7.726 7.726s-3.459 7.726-7.726 7.726z" fill="#6b61b1"/></g><g><path d="m504.274 294.946h-35.981c-4.268 0-7.726-3.459-7.726-7.726s3.459-7.726 7.726-7.726h35.981c4.268 0 7.726 3.459 7.726 7.726 0 4.266-3.459 7.726-7.726 7.726z" fill="#6b61b1"/></g><g><path d="m43.707 264.767h-35.981c-4.268 0-7.726-3.459-7.726-7.726s3.459-7.726 7.726-7.726h35.981c4.268 0 7.726 3.459 7.726 7.726.001 4.267-3.458 7.726-7.726 7.726z" fill="#f6e266"/></g><g><path d="m81.171 310.556h-35.382c-2.049 0-4.014-.814-5.464-2.263l-12.488-12.488c-3.017-3.017-3.017-7.909 0-10.927 3.018-3.017 7.909-3.017 10.928 0l10.224 10.225h32.182c4.268 0 7.726 3.459 7.726 7.726 0 4.268-3.458 7.727-7.726 7.727z" fill="#407093"/></g><g><path d="m43.707 231.466h-35.981c-4.268 0-7.726-3.459-7.726-7.726s3.459-7.726 7.726-7.726h35.981c4.268 0 7.726 3.459 7.726 7.726s-3.458 7.726-7.726 7.726z" fill="#f6e266"/></g></g></svg>